# xmcd
# Track frame offsets:
# 150
# 12032
# 26724
# 42495
# 60059
# 73377
# 86928
# 106852
# 121632
# 133975
# 151449
# 164930
#
# Disc length: 2375 seconds
# Revision: 0
# Processed by: cddbd v1.4PL0 Copyright (c) Steve Scherf et al.
# Submitted via: VisiTrax 2.9.5.181 - For more info visit www.synapsa.com
#
DISCID=a409450c
DTITLE=Emerson Drive - Emerson Drive
DYEAR=1900
DGENRE=
TTITLE0=Fall Into Me
TTITLE1=Evidence
TTITLE2=Passionate Desperate Love
TTITLE3=Only God (Coukd Stop Me From Loving You)
TTITLE4=Say My Name
TTITLE5=I Should Be Sleeping
TTITLE6=Light Of Day
TTITLE7=Looking Over My Shoulder
TTITLE8=I See Heaven
TTITLE9=How Lucky I Am
TTITLE10=Hollywood Kisses
TTITLE11=It's All About You
EXTD=
EXTT0=
EXTT1=
EXTT2=
EXTT3=
EXTT4=
EXTT5=
EXTT6=
EXTT7=
EXTT8=
EXTT9=
EXTT10=
EXTT11=
PLAYORDER=
